<svg xmlns="http://www.w3.org/2000/svg" xmlns:svg="http://www.w3.org/2000/svg" xmlns:xlink="http://www.w3.org/1999/xlink" id="svg88" width="465" height="286.133" version="1.1" viewBox="0 0 465 286.133"><metadata id="metadata92"/><title id="title2">DIAGRAM 1.1</title><desc id="desc4">Created with Sketch.</desc><defs id="defs9"><path id="path-1" d="M 10,0 H 22.077455 315.64246 v 0 c 5.52285,0 10,4.4771525 10,10 v 224 0 c 0,5.52285 -4.47715,10 -10,10 H 10 v 0 C 4.4771525,244 0,239.52285 0,234 V 10 10 C 0,4.4771525 4.4771525,0 10,0 Z"/><path id="path-2" d="M 69,0 H 86.399489 315.64246 v 0 c 5.52285,0 10,4.4771525 10,10 v 224 0 c 0,5.52285 -4.47715,10 -10,10 H 69 Z"/><path id="path-3" d="M 237.7095,80.449275 H 331 v 0 c 2.20914,0 4,1.790861 4,4 v 78.637685 0 c 0,2.20914 -1.79086,4 -4,4 h -93.2905 v 0 c -8.28427,0 -15,-6.71573 -15,-15 v -56.637685 0 c 0,-8.284271 6.71573,-15 15,-15 z"/></defs><g id="Page-1" transform="translate(-72,-33.867187)" style="fill:none;fill-rule:evenodd;stroke:none;stroke-width:1"><g id="White-Paper-Diagrams" transform="translate(-286,-552)"><g id="Havven-Diagram-2-WHITE" transform="translate(286,154)"><g id="DIAGRAM-1.1" transform="translate(0,398)"><path id="Path-15" d="m 261,-64 h 14 v 0 c 1.10457,0 2,0.895431 2,2 v 247 0 c 0,1.10457 -0.89543,2 -2,2 h -14" transform="rotate(-90,269,61.5)" style="stroke:#171923;stroke-width:1.5"/><path id="path12" d="m 99,29 h 14 v 0 c 1.10457,0 2,0.89543 2,2 v 61 0 c 0,1.104569 -0.89543,2 -2,2 H 99" transform="rotate(-90,107,61.5)" style="stroke:#171923;stroke-width:1.5"/><g id="Ethers" transform="translate(449,163)"><ellipse id="Oval" cx="43.5" cy="118.717" rx="43.5" ry="24.362" style="fill:#ecf0f1;fill-rule:nonzero;stroke:#171923;stroke-linecap:round;stroke-linejoin:round"/><path id="Shape" d="m 0,114.55665 v 15.21152 C 0,143.17645 19.488,154 43.5,154 67.512,154 87,143.17645 87,129.76817 v -15.21152 c 0,13.40828 -19.488,24.23183 -43.5,24.23183 -24.012,0 -43.5,-10.82355 -43.5,-24.23183 z" style="fill:#7f7f7f;fill-rule:nonzero;stroke:#171923;stroke-width:2;stroke-linecap:round;stroke-linejoin:round"/><ellipse id="ellipse16" cx="43.5" cy="102.475" rx="43.5" ry="24.362" style="fill:#6a7eb3;fill-rule:nonzero;stroke:#fff;stroke-linecap:round;stroke-linejoin:round"/><path id="path18" d="m 0,99.08867 v 15.21152 c 0,13.40828 19.488,24.23183 43.5,24.23183 24.012,0 43.5,-10.82355 43.5,-24.23183 V 99.08867 C 87,112.49695 67.512,123.3205 43.5,123.3205 19.488,123.3205 0,112.49695 0,99.08867 Z" style="fill:#7f7f7f;fill-rule:nonzero;stroke:#171923;stroke-width:2;stroke-linecap:round;stroke-linejoin:round"/><ellipse id="ellipse20" cx="43.5" cy="87.007" rx="43.5" ry="24.362" style="fill:#ecf0f1;fill-rule:nonzero;stroke:#434a54;stroke-linecap:round;stroke-linejoin:round"/><path id="path22" d="m 0,83.62069 c 0,13.408279 19.488,24.23183 43.5,24.23183 24.012,0 43.5,-10.823551 43.5,-24.23183 v 15.21152 c 0,13.40828 -19.488,24.23183 -43.5,24.23183 -24.012,0 -43.5,-10.82355 -43.5,-24.23183 z" style="fill:#7f7f7f;fill-rule:nonzero;stroke:#171923;stroke-width:2;stroke-linecap:round;stroke-linejoin:round"/><ellipse id="ellipse24" cx="43.5" cy="71.539" rx="43.5" ry="24.362" style="fill:#6a7eb3;fill-rule:nonzero;stroke:#fff;stroke-linecap:round;stroke-linejoin:round"/><path id="path26" d="m 0,68.37931 v 15.211521 c 0,13.408279 19.488,24.231829 43.5,24.231829 24.012,0 43.5,-10.82355 43.5,-24.231829 V 68.37931 C 87,81.787589 67.512,92.61114 43.5,92.61114 19.488,92.61114 0,81.787589 0,68.37931 Z" style="fill:#7f7f7f;fill-rule:nonzero;stroke:#171923;stroke-width:2;stroke-linecap:round;stroke-linejoin:round"/><ellipse id="ellipse28" cx="43.5" cy="54.525" rx="43.5" ry="24.362" style="fill:#17192a;fill-rule:nonzero;stroke:#fff;stroke-linecap:round;stroke-linejoin:round"/><path id="path30" d="m 0,53.91133 c 0,13.408279 19.488,24.231829 43.5,24.231829 24.012,0 43.5,-10.82355 43.5,-24.231829 V 69.122851 C 87,82.531129 67.512,93.35468 43.5,93.35468 19.488,93.35468 0,82.531129 0,69.122851 Z" style="fill:#7f7f7f;fill-rule:nonzero;stroke:#171923;stroke-width:2;stroke-linecap:round;stroke-linejoin:round"/><ellipse id="ellipse32" cx="43.5" cy="39.83" rx="43.5" ry="24.362" style="fill:#39838b;fill-rule:nonzero;stroke:#434a54;stroke-linecap:round;stroke-linejoin:round"/><path id="path34" d="M 0,38.44335 V 53.65487 C 0,67.063149 19.488,77.8867 43.5,77.8867 67.512,77.8867 87,67.063149 87,53.65487 V 38.44335 C 87,51.851629 67.512,62.675179 43.5,62.675179 19.488,62.675179 0,51.851629 0,38.44335 Z" style="fill:#7f7f7f;fill-rule:nonzero;stroke:#171923;stroke-width:2;stroke-linecap:round;stroke-linejoin:round"/><ellipse id="ellipse36" cx="43.5" cy="24.362" rx="43.5" ry="24.362" style="fill:#7f7f7f;fill-rule:nonzero;stroke:#171923;stroke-width:2;stroke-linecap:round;stroke-linejoin:round"/><g id="ETH" transform="rotate(15,-7.4616729,148.75715)" style="stroke:#171923"><polygon id="Path-9" points="9.156 1 17.313 13.432 9.156 17.241 1 13.432"/><polygon id="Path-11" points="1.518 16.275 9.674 27.876 17.83 16.275 9.674 20.37"/><path id="Path-20" d="M 8.8598625,0.95415259 9.5446429,17.241379"/><path id="path41" d="M 9.7767857,27.802396 9.3013486,19.988466"/><polyline id="Path-21" points=".823 13.46 9.313 10.373 17.313 13.183"/></g><path id="path45" d="M 0,23.20197 V 38.413491 C 0,51.82177 19.488,62.64532 43.5,62.64532 67.512,62.64532 87,51.82177 87,38.413491 V 23.20197 C 87,36.610249 67.512,47.4338 43.5,47.4338 19.488,47.4338 0,36.610249 0,23.20197 Z" style="fill:#7f7f7f;fill-rule:nonzero;stroke:#171923;stroke-width:2;stroke-linecap:round;stroke-linejoin:round"/></g><g id="Wallet" transform="translate(72,76)"><g id="Rectangle-4"><use id="use48" width="100%" height="100%" x="0" y="0" xlink:href="#path-1" style="fill:#52578e;fill-opacity:.51474753;fill-rule:evenodd"/><path id="path50" d="M 10,1 C 5.0294372,1 1,5.0294372 1,10 v 224 c 0,4.97056 4.0294372,9 9,9 h 305.64246 c 4.97056,0 9,-4.02944 9,-9 V 10 c 0,-4.9705628 -4.02944,-9 -9,-9 z" style="stroke:#171923;stroke-width:2"/></g><g id="g57"><use id="use53" width="100%" height="100%" x="0" y="0" xlink:href="#path-2" style="fill:#52578e;fill-rule:evenodd"/><path id="path55" d="m 70,1 v 242 h 245.64246 c 4.97056,0 9,-4.02944 9,-9 V 10 c 0,-4.9705628 -4.02944,-9 -9,-9 z" style="stroke:#171923;stroke-width:2"/></g><g id="g63"><use id="use59" width="100%" height="100%" x="0" y="0" xlink:href="#path-3" style="fill:#52578e;fill-rule:evenodd"/><path id="path61" d="m 237.7095,81.449275 c -7.73199,0 -14,6.268014 -14,14 v 56.637685 c 0,7.73198 6.26801,14 14,14 H 331 c 1.65685,0 3,-1.34315 3,-3 V 84.449275 c 0,-1.656854 -1.34315,-3 -3,-3 z" style="stroke:#171923;stroke-width:2"/></g><rect id="rect65" width="38" height="38" x="243.36" y="105.319" rx="19" style="stroke:#171923;stroke-width:2"/></g><text id="ESCROWED" font-size="15" font-weight="normal" style="font-weight:400;font-size:15px;font-family:Rubik-Regular,Rubik;fill:#171923"><tspan id="tspan69" x="221.667" y="45">ESCROWED</tspan></text><text id="FREE" font-size="15" font-weight="normal" style="font-weight:400;font-size:15px;font-family:Rubik-Regular,Rubik;fill:#171923"><tspan id="tspan72" x="89" y="45">FREE</tspan></text><text id="15.79%" font-size="15" font-weight="normal" style="font-weight:400;font-size:15px;font-family:Rubik-Regular,Rubik;fill:#171923"><tspan id="tspan75" x="85.048" y="102">15.79%</tspan></text><text id="84.21%" font-size="15" font-weight="normal" style="font-weight:400;font-size:15px;font-family:Rubik-Regular,Rubik;fill:#fff"><tspan id="tspan78" x="237.475" y="102">84.21%</tspan></text><text id="$40-ETH" font-size="15" font-weight="normal" style="font-weight:400;font-size:15px;font-family:Rubik-Regular,Rubik;fill:#171923"><tspan id="tspan81" x="462.455" y="148">$40 ETH</tspan></text></g></g></g></g></svg>