<svg xmlns="http://www.w3.org/2000/svg" xmlns:svg="http://www.w3.org/2000/svg" xmlns:xlink="http://www.w3.org/1999/xlink" id="svg33" width="335" height="285.906" version="1.1" viewBox="0 0 335 285.906"><metadata id="metadata37"/><title id="title2">Havven Diagram 1 WHITE</title><desc id="desc4">Created with Sketch.</desc><defs id="defs8"><path id="path-1" d="M 10,0 H 22.077455 315.64246 v 0 c 5.52285,0 10,4.4771525 10,10 v 224 0 c 0,5.52285 -4.47715,10 -10,10 H 10 v 0 C 4.4771525,244 0,239.52285 0,234 V 10 10 C 0,4.4771525 4.4771525,0 10,0 Z"/><path id="path-2" d="M 237.7095,80.449275 H 331 v 0 c 2.20914,0 4,1.790861 4,4 v 78.637685 0 c 0,2.20914 -1.79086,4 -4,4 h -93.2905 v 0 c -8.28427,0 -15,-6.71573 -15,-15 v -56.637685 0 c 0,-8.284271 6.71573,-15 15,-15 z"/></defs><g id="Page-1" transform="translate(-5.0828,-5.5560383)" style="fill:none;fill-rule:evenodd;stroke:none;stroke-width:1"><g id="White-Paper-Diagrams" transform="translate(-352.9172,-1978.5382)"><g id="Havven-Diagram-1-WHITE" transform="translate(286,1950)"><g id="DIAGRAM-1.1"><path id="Path-15" d="m 230,-101 h 8 v 0 c 1.10457,0 2,0.89543 2,2 v 315 0 c 0,1.10457 -0.89543,2 -2,2 h -8" transform="rotate(-90,235,58.5)" style="stroke:#171923;stroke-width:1.5"/><g id="Wallet" transform="translate(72,76)"><g id="Rectangle-4"><use id="use11" width="100%" height="100%" x="0" y="0" xlink:href="#path-1" style="fill:#52578e;fill-opacity:.51474753;fill-rule:evenodd"/><path id="path13" d="M 10,1 C 5.0294372,1 1,5.0294372 1,10 v 224 c 0,4.97056 4.0294372,9 9,9 h 305.64246 c 4.97056,0 9,-4.02944 9,-9 V 10 c 0,-4.9705628 -4.02944,-9 -9,-9 z" style="stroke:#171923;stroke-width:2"/></g><g id="g20"><use id="use16" width="100%" height="100%" x="0" y="0" xlink:href="#path-2" style="fill:#a6a9c5;fill-rule:evenodd"/><path id="path18" d="m 237.7095,81.449275 c -7.73199,0 -14,6.268014 -14,14 v 56.637685 c 0,7.73198 6.26801,14 14,14 H 331 c 1.65685,0 3,-1.34315 3,-3 V 84.449275 c 0,-1.656854 -1.34315,-3 -3,-3 z" style="stroke:#171923;stroke-width:2"/></g><rect id="rect22" width="38" height="38" x="243.36" y="105.319" rx="19" style="stroke:#171923;stroke-width:2"/></g><text id="FREE" font-size="15" font-weight="normal" style="font-weight:400;font-size:15px;font-family:Rubik-Regular,Rubik;fill:#171923"><tspan id="tspan26" x="206" y="45">FREE</tspan></text></g></g></g></g></svg>